<svg xmlns="http://www.w3.org/2000/svg" width="21" height="21.001" viewBox="0 0 21 21.001">
  <path id="_353442_bookmark_circle_favorite_star_favorites_icon" data-name="353442_bookmark_circle_favorite_star_favorites_icon" d="M17.868,7.106a10.5,10.5,0,1,0,10.5,10.5A10.512,10.512,0,0,0,17.868,7.106Zm5.8,9.732h0l-3.04,2.2L21.8,22.616a.558.558,0,0,1,.028.176.566.566,0,0,1-.9.459l-3.063-2.216-3.063,2.216a.566.566,0,0,1-.9-.459.556.556,0,0,1,.029-.176l1.171-3.578-3.04-2.2h0a.565.565,0,0,1,.332-1.024h3.763l1.165-3.562a.566.566,0,0,1,1.082,0l1.165,3.562h3.763a.565.565,0,0,1,.332,1.024Z" transform="translate(-7.368 -7.106)" fill="#2e2e2e"/>
</svg>
