<svg xmlns="http://www.w3.org/2000/svg" width="20.996" height="20.995" viewBox="0 0 20.996 20.995">
  <g id="_8673597_ic_fluent_person_add_filled_icon" data-name="8673597_ic_fluent_person_add_filled_icon" transform="translate(-2.004 -2.005)">
    <path id="Path_1151" data-name="Path 1151" d="M11,17.5A6.469,6.469,0,0,1,12.023,14H4.253A2.249,2.249,0,0,0,2,16.249v.92a2.75,2.75,0,0,0,.51,1.6C4.056,20.929,6.579,22,10,22a13.151,13.151,0,0,0,2.592-.24A6.475,6.475,0,0,1,11,17.5Z" fill="#2e2e2e"/>
    <path id="Path_1152" data-name="Path 1152" d="M15,7a5,5,0,1,0-5,5A5,5,0,0,0,15,7Z" fill="#2e2e2e"/>
    <path id="Path_1153" data-name="Path 1153" d="M23,17.5A5.5,5.5,0,1,0,17.5,23,5.5,5.5,0,0,0,23,17.5Zm-5.59-3.492L17.5,14l.09.008a.5.5,0,0,1,.4.4L18,14.5V17h2.5l.09.008a.5.5,0,0,1,.4.4L21,17.5,21,17.59a.5.5,0,0,1-.4.4L20.5,18H18v2.5l-.008.09a.5.5,0,0,1-.4.4L17.5,21l-.09-.008a.5.5,0,0,1-.4-.4L17,20.5V18H14.5l-.09-.008a.5.5,0,0,1-.4-.4L14,17.5l.008-.09a.5.5,0,0,1,.4-.4L14.5,17H17V14.5l.008-.09A.5.5,0,0,1,17.41,14.008Z" fill="#2e2e2e"/>
  </g>
</svg>
