<svg id="_3669372_contact_ic_mail_icon" data-name="3669372_contact_ic_mail_icon" xmlns="http://www.w3.org/2000/svg" width="24.5" height="24.5" viewBox="0 0 24.5 24.5">
  <path id="Path_1142" data-name="Path 1142" d="M0,0H24.5V24.5H0Z" fill="none"/>
  <path id="Path_1143" data-name="Path 1143" d="M21.438,11.1V10.083l-3.062,2.042-3.062-2.042V11.1l3.062,2.042ZM22.458,6H2.042A2.041,2.041,0,0,0,0,8.042V22.333a2.041,2.041,0,0,0,2.042,2.042H22.458a2.032,2.032,0,0,0,2.031-2.042L24.5,8.042A2.041,2.041,0,0,0,22.458,6ZM8.167,9.063A3.063,3.063,0,1,1,5.1,12.125,3.065,3.065,0,0,1,8.167,9.063Zm6.125,12.25H2.042V20.292c0-2.042,4.083-3.165,6.125-3.165s6.125,1.123,6.125,3.165Zm8.167-6.125H14.292V9.063h8.167Z" transform="translate(0 -2.938)" fill="#2e2e2e"/>
  <path id="Path_1144" data-name="Path 1144" d="M0,0H24.5V24.5H0Z" fill="none"/>
</svg>
