<svg xmlns="http://www.w3.org/2000/svg" width="23.065" height="20.43" viewBox="0 0 23.065 20.43">
  <path id="_8665876_square_root_variable_icon" data-name="8665876_square_root_variable_icon" d="M23.065,2.151A1.251,1.251,0,0,0,21.784.905h-8.97a1.282,1.282,0,0,0-1.243.971L7.925,16.418,4.99,10.548a1.284,1.284,0,0,0-1.145-.709H1.281A1.274,1.274,0,0,0,0,11.084a1.3,1.3,0,0,0,1.281,1.281H3.052l4.133,8.261a1.283,1.283,0,0,0,1.146.708,1.311,1.311,0,0,0,.14-.007,1.282,1.282,0,0,0,1.1-.963L13.815,3.393h7.969A1.224,1.224,0,0,0,23.065,2.151Zm-.376,8.064a1.281,1.281,0,0,0-1.812,0l-1.656,1.658-1.657-1.657a1.281,1.281,0,1,0-1.812,1.812l1.657,1.657-1.657,1.657a1.28,1.28,0,0,0,1.812,1.809L19.221,15.5l1.657,1.657A1.282,1.282,0,0,0,22.69,15.34l-1.657-1.657,1.656-1.658A1.279,1.279,0,0,0,22.689,10.215Z" transform="translate(0 -0.905)"/>
</svg>
